<svg xmlns="http://www.w3.org/2000/svg" style="display: none;">
    <symbol id="terminal">
        <path fill-rule="evenodd" d="M2.25 6a3 3 0 0 1 3-3h13.5a3 3 0 0 1 3 3v12a3 3 0 0 1-3 3H5.25a3 3 0 0 1-3-3V6Zm3.97.97a.75.75 0 0 1 1.06 0l2.25 2.25a.75.75 0 0 1 0 1.06l-2.25 2.25a.75.75 0 0 1-1.06-1.06l1.72-1.72-1.72-1.72a.75.75 0 0 1 0-1.06Zm4.28 4.28a.75.75 0 0 0 0 1.5h3a.75.75 0 0 0 0-1.5h-3Z" clip-rule="evenodd"/>
    </symbol>
    <symbol id="grid_view">
        <path d="M5,11h4c1.1,0,2-0.9,2-2V5c0-1.1-0.9-2-2-2H5C3.9,3,3,3.9,3,5v4C3,10.1,3.9,11,5,11z"/><path d="M5,21h4c1.1,0,2-0.9,2-2v-4c0-1.1-0.9-2-2-2H5c-1.1,0-2,0.9-2,2v4C3,20.1,3.9,21,5,21z"/><path d="M13,5v4c0,1.1,0.9,2,2,2h4c1.1,0,2-0.9,2-2V5c0-1.1-0.9-2-2-2h-4C13.9,3,13,3.9,13,5z"/><path d="M15,21h4c1.1,0,2-0.9,2-2v-4c0-1.1-0.9-2-2-2h-4c-1.1,0-2,0.9-2,2v4C13,20.1,13.9,21,15,21z"/>
    </symbol>
    <symbol id="star">
        <path d="M0 0h24v24H0V0z" fill="none"/><path d="M0 0h24v24H0V0z" fill="none"/><path d="m12 17.27 4.15 2.51c.76.46 1.69-.22 1.49-1.08l-1.1-4.72 3.67-3.18c.67-.58.31-1.68-.57-1.75l-4.83-.41-1.89-4.46c-.34-.81-1.5-.81-1.84 0L9.19 8.63l-4.83.41c-.88.07-1.24 1.17-.57 1.75l3.67 3.18-1.1 4.72c-.2.86.73 1.54 1.49 1.08l4.15-2.5z"/>
    </symbol>
    <symbol id="chat">
        <path fill-rule="evenodd" d="M5.337 21.718a6.707 6.707 0 0 1-.533-.074.75.75 0 0 1-.44-1.223 3.73 3.73 0 0 0 .814-1.686c.023-.115-.022-.317-.254-.543C3.274 16.587 2.25 14.41 2.25 12c0-5.03 4.428-9 9.75-9s9.75 3.97 9.75 9c0 5.03-4.428 9-9.75 9-.833 0-1.643-.097-2.417-.279a6.721 6.721 0 0 1-4.246.997Z" clip-rule="evenodd" />
    </symbol>
    <symbol id="blog">
        <path d="M0 0h24v24H0V0z" fill="none"/><path d="M19 18l2 1V3c0-1.1-.9-2-2-2H8.99C7.89 1 7 1.9 7 3h10c1.1 0 2 .9 2 2v13zM15 5H5c-1.1 0-2 .9-2 2v16l7-3 7 3V7c0-1.1-.9-2-2-2z"/>
    </symbol>

</svg>